<svg width="20" height="20" viewBox="0 0 20 20" fill="none" xmlns="http://www.w3.org/2000/svg">
<path d="M8.00781 9.66406L9.29688 8.375V14.1562C9.29688 14.4297 9.49219 14.625 9.76562 14.625H10.2344C10.4883 14.625 10.7031 14.4297 10.7031 14.1562V8.375L11.9727 9.66406C12.1484 9.83984 12.4609 9.83984 12.6367 9.66406L12.9688 9.33203C13.1445 9.15625 13.1445 8.84375 12.9688 8.66797L10.3125 6.03125C10.1367 5.83594 9.84375 5.83594 9.66797 6.03125L7.01172 8.66797C6.83594 8.84375 6.83594 9.15625 7.01172 9.33203L7.34375 9.66406C7.51953 9.83984 7.83203 9.83984 8.00781 9.66406Z" fill="#444647"/>
</svg>
