<svg width="20" height="20" viewBox="0 0 20 20" fill="none" xmlns="http://www.w3.org/2000/svg">
<path d="M11.9727 10.8555L10.7031 12.1445V6.34375C10.7031 6.08984 10.4883 5.875 10.2344 5.875H9.76562C9.49219 5.875 9.29688 6.08984 9.29688 6.34375V12.1445L8.00781 10.8555C7.83203 10.6797 7.51953 10.6797 7.34375 10.8555L7.01172 11.1875C6.83594 11.3633 6.83594 11.6758 7.01172 11.8516L9.66797 14.4883C9.84375 14.6836 10.1367 14.6836 10.3125 14.4883L12.9688 11.8516C13.1445 11.6758 13.1445 11.3633 12.9688 11.1875L12.6367 10.8555C12.4609 10.6797 12.1484 10.6797 11.9727 10.8555Z" fill="#444647"/>
</svg>
