<svg width="136" height="28" viewBox="0 0 136 28" fill="none" xmlns="http://www.w3.org/2000/svg">
<path d="M6.0146 22.0368C9.12846 22.0368 11.4927 20.1035 11.4927 17.3334C11.4927 14.823 9.8781 13.5533 7.31204 12.8608L5.95694 12.4568C4.71716 12.1394 4.54417 11.6489 4.54417 11.2161C4.54417 10.5524 5.2938 10.235 5.98577 10.235C6.93723 10.235 7.77336 10.6678 8.43649 11.5046L11.0314 9.39816C9.90693 7.78226 8.2635 6.97431 6.04343 6.97431C2.9584 6.97431 0.709501 8.67678 0.623005 11.3315C0.536508 13.5533 1.94928 15.2558 4.60183 15.9483L5.66862 16.208C7.25438 16.6409 7.60037 16.9871 7.60037 17.5931C7.60037 18.3145 6.8219 18.6319 6.0146 18.6319C4.63066 18.6319 3.44855 18.0259 2.78541 16.9583L0.0751953 19.2667C1.31497 21.1423 3.47738 22.0368 6.0146 22.0368Z" fill="white"/>
<path d="M20.381 21.8925C21.5055 21.8925 22.2263 21.7771 22.8894 21.5751V18.0836C22.4281 18.2568 21.8803 18.3433 21.2748 18.3433C19.5449 18.3433 18.8241 17.6508 18.8241 15.8906V10.7544H22.3193L23.1325 9.11098L24.0353 7.29172H18.8241V3.28083H14.8741V7.29172H11.9621V10.7544H14.8741V16.6697C14.8741 20.2189 17.3248 21.8925 20.381 21.8925Z" fill="white"/>
<path d="M31.4166 22.0368C35.5973 22.0368 38.9995 18.7473 38.9995 14.5056C38.9995 10.2927 35.5973 6.97431 31.4166 6.97431C27.236 6.97431 23.8338 10.2927 23.8338 14.5056C23.8338 18.7473 27.236 22.0368 31.4166 22.0368ZM31.4166 18.3433C29.3407 18.3433 27.8126 16.7274 27.8126 14.5056C27.8126 12.2837 29.3407 10.6678 31.4166 10.6678C33.4637 10.6678 34.9918 12.2837 34.9918 14.5056C34.9918 16.7274 33.4637 18.3433 31.4166 18.3433Z" fill="white"/>
<path d="M41.0079 21.7194H44.9579V14.823C44.9579 12.428 46.1977 10.9852 48.0717 10.9852C48.7349 10.9852 49.2538 11.1006 49.8593 11.3026V7.29172C49.3692 7.14745 48.9655 7.11859 48.5331 7.11859C46.9185 7.11859 45.448 8.18624 44.9579 9.60015V7.29172H41.0079V21.7194Z" fill="white"/>
<path d="M57.8611 27.7502L66.9144 7.29172H62.5608L58.7261 16.6409L54.8626 7.29172H50.5378L56.5925 20.9115L53.5652 27.7502H57.8611Z" fill="white"/>
<path d="M75.8037 21.8925C76.9281 21.8925 77.6489 21.7771 78.3121 21.5751V18.0836C77.8508 18.2568 77.303 18.3433 76.6975 18.3433C74.9676 18.3433 74.2467 17.6508 74.2467 15.8906V10.7544H77.7563L78.8302 9.02305L79.904 7.29172H74.2467V3.28083H70.2968V7.29172H68.3589L67.6268 9.02305L66.8946 10.7544H70.2968V16.6697C70.2968 20.2189 72.7475 21.8925 75.8037 21.8925Z" fill="white"/>
<path d="M87.4465 22.0368C90.4739 22.0368 92.7804 20.7672 94.1355 18.805L91.1947 16.612C90.5315 17.6219 89.2917 18.4299 87.4753 18.4299C85.5724 18.4299 83.8713 17.3622 83.6407 15.4289H94.4238C94.5103 14.823 94.4815 14.419 94.4815 14.0727C94.4815 9.36931 91.1658 6.97431 87.3888 6.97431C83.0064 6.97431 79.806 10.235 79.806 14.5056C79.806 19.0647 83.1505 22.0368 87.4465 22.0368ZM83.7848 12.7454C84.1596 10.9852 85.8031 10.235 87.2735 10.235C88.7439 10.235 90.1855 11.0141 90.5315 12.7454H83.7848Z" fill="white"/>
<path d="M96.8126 21.7194H100.763V0.0778809H96.8126V21.7194Z" fill="white"/>
<path d="M103.554 21.7194H107.504V0.0778809H103.554V21.7194Z" fill="white"/>
<path d="M117.424 22.0368C120.451 22.0368 122.758 20.7672 124.113 18.805L121.172 16.612C120.509 17.6219 119.269 18.4299 117.452 18.4299C115.55 18.4299 113.848 17.3622 113.618 15.4289H124.401C124.487 14.823 124.459 14.419 124.459 14.0727C124.459 9.36931 121.143 6.97431 117.366 6.97431C112.983 6.97431 109.783 10.235 109.783 14.5056C109.783 19.0647 113.128 22.0368 117.424 22.0368ZM113.762 12.7454C114.137 10.9852 115.78 10.235 117.251 10.235C118.721 10.235 120.163 11.0141 120.509 12.7454H113.762Z" fill="white"/>
<path d="M126.607 21.7194H130.557V14.823C130.557 12.428 131.797 10.9852 133.671 10.9852C134.334 10.9852 134.853 11.1006 135.458 11.3026V7.29172C134.968 7.14745 134.565 7.11859 134.132 7.11859C132.517 7.11859 131.047 8.18624 130.557 9.60015V7.29172H126.607V21.7194Z" fill="white"/>
</svg>
