<svg width="20" height="21" viewBox="0 0 20 21" fill="none" xmlns="http://www.w3.org/2000/svg">
<path d="M19.6875 10.5C19.6875 5.1875 15.3125 0.8125 10 0.8125C4.64844 0.8125 0.3125 5.1875 0.3125 10.5C0.3125 15.8516 4.64844 20.1875 10 20.1875C15.3125 20.1875 19.6875 15.8516 19.6875 10.5ZM10.2344 4.01562C12.4609 4.01562 14.8047 5.73438 14.8047 8C14.8047 11.0469 11.5625 11.0859 11.5625 12.1797V12.2188C11.5625 12.4922 11.3281 12.6875 11.0938 12.6875H8.90625C8.63281 12.6875 8.4375 12.4922 8.4375 12.2188V12.0625C8.4375 10.4609 9.64844 9.83594 10.5469 9.32812C11.3281 8.89844 11.8359 8.58594 11.8359 8C11.8359 7.21875 10.8203 6.71094 10.0391 6.71094C8.98438 6.71094 8.51562 7.21875 7.8125 8.11719C7.65625 8.3125 7.34375 8.35156 7.14844 8.19531L5.78125 7.17969C5.58594 7.02344 5.54688 6.75 5.70312 6.51562C6.75781 4.91406 8.125 4.01562 10.2344 4.01562ZM10 13.7031C10.9766 13.7031 11.7969 14.5234 11.7969 15.5C11.7969 16.5156 10.9766 17.2969 10 17.2969C8.98438 17.2969 8.20312 16.5156 8.20312 15.5C8.20312 14.5234 8.98438 13.7031 10 13.7031Z" fill="white"/>
</svg>
