<svg width="38" height="36" viewBox="0 0 38 36" fill="none" xmlns="http://www.w3.org/2000/svg">
<path d="M6.88391 11.5083L17.4836 14.8555C18.2129 15.0858 18.9953 15.0858 19.7246 14.8555L30.3243 11.5083C29.7136 5.57439 24.6993 0.946167 18.6041 0.946167C12.5089 0.946167 7.49461 5.57439 6.88391 11.5083Z" fill="#F3C3AF"/>
<path d="M20.4763 18.3373C19.258 18.7231 17.9503 18.7231 16.732 18.3373L3.22942 14.0615C1.63026 13.5551 0 14.7489 0 16.4263V20.7393C0 21.5488 0.394933 22.3073 1.05805 22.7715L17.1817 34.058C18.0358 34.6559 19.1726 34.6559 20.0267 34.058L36.1503 22.7715C36.8134 22.3073 37.2083 21.5488 37.2083 20.7393V16.4263C37.2083 14.7489 35.5781 13.5551 33.9789 14.0615L20.4763 18.3373Z" fill="#1C62EB"/>
</svg>
